<svg width="43" height="36" viewBox="0 0 43 36" fill="none" xmlns="http://www.w3.org/2000/svg">
<path d="M12.8188 13.096L12.7388 17.688L12.8028 21H11.5228L11.6028 17.848L11.5868 14.424L9.52275 15L9.39475 14.936V13.928L12.6268 12.968L12.8188 13.096ZM16.5748 19.592C16.7881 19.592 16.9588 19.656 17.0868 19.784C17.2148 19.912 17.2788 20.088 17.2788 20.312C17.2788 20.5467 17.2094 20.7333 17.0707 20.872C16.9428 21.0107 16.7614 21.08 16.5268 21.08C16.3028 21.08 16.1268 21.016 15.9988 20.888C15.8814 20.76 15.8228 20.5787 15.8228 20.344C15.8228 20.12 15.8868 19.9387 16.0148 19.8C16.1534 19.6613 16.3401 19.592 16.5748 19.592ZM22.695 12.936C23.7723 12.936 24.6043 13.288 25.191 13.992C25.7883 14.6853 26.087 15.6773 26.087 16.968C26.087 18.2907 25.7777 19.3147 25.159 20.04C24.5403 20.7547 23.6657 21.112 22.535 21.112C21.447 21.112 20.6043 20.7653 20.007 20.072C19.4203 19.3787 19.127 18.3973 19.127 17.128C19.127 15.784 19.4363 14.7493 20.055 14.024C20.6737 13.2987 21.5537 12.936 22.695 12.936ZM22.583 14.104C21.7723 14.104 21.159 14.3493 20.743 14.84C20.3377 15.3307 20.135 16.0613 20.135 17.032C20.135 18.0133 20.343 18.7547 20.759 19.256C21.175 19.7467 21.7883 19.992 22.599 19.992C23.4097 19.992 24.023 19.752 24.439 19.272C24.8657 18.7813 25.079 18.0613 25.079 17.112C25.079 16.12 24.8657 15.3733 24.439 14.872C24.023 14.36 23.4043 14.104 22.583 14.104ZM28.8761 14.312L30.3961 16.536L31.7881 14.328L32.1561 13.672H33.3401L31.0521 17.256L33.5001 20.936L32.1561 21.064L31.8041 20.312L30.2361 17.992L28.7001 20.376L28.3801 21H27.1961L29.5481 17.272L27.2121 13.72L28.5721 13.624L28.8761 14.312Z" fill="black"/>
<path d="M42.5 18C42.5 27.5854 33.1849 35.5 21.5 35.5C9.81513 35.5 0.5 27.5854 0.5 18C0.5 8.41455 9.81513 0.5 21.5 0.5C33.1849 0.5 42.5 8.41455 42.5 18Z" stroke="black"/>
</svg>
