<svg width="52" height="52" viewBox="0 0 70 70" fill="none" xmlns="http://www.w3.org/2000/svg">
<g clip-path="url(#clip0)">
<path d="M35.1737 40.147H32.2549V48.3823H35.1737C36.2132 48.3823 37.0588 47.5367 37.0588 46.4973V43.5784V42.0321C37.0588 40.9927 36.2132 40.147 35.1737 40.147Z" fill="white"/>
<path d="M57.647 28.6261V9.26469H49.4117V28.6261L53.5294 26.0526L57.647 28.6261Z" fill="white"/>
<path d="M12.3529 46.4973C12.3529 47.5367 13.1985 48.3823 14.238 48.3823H17.1568V40.147H14.238C13.1985 40.147 12.3529 40.9927 12.3529 42.0321V43.5784V46.4973Z" fill="white"/>
<path d="M61.7647 9.26469V33.9706H58.4291L53.5294 30.9081L48.6297 33.9706H45.2941V9.26469H0V60.7353H70V9.26469H61.7647ZM41.1765 46.4973C41.1765 49.8072 38.4837 52.5 35.1738 52.5H28.1373V36.0294H35.1738C35.8322 36.0294 36.4655 36.1376 37.0588 36.3342V33.9706C37.0588 27.1592 31.5173 21.6176 24.7059 21.6176C17.8945 21.6176 12.3529 27.1592 12.3529 33.9706V36.3342C12.9462 36.1374 13.5796 36.0294 14.238 36.0294H21.2745V52.5H14.238C10.9281 52.5 8.23529 49.8072 8.23529 46.4973V33.9706C8.23529 24.8887 15.624 17.5 24.7059 17.5C33.7878 17.5 41.1765 24.8887 41.1765 33.9706V46.4973ZM59.7059 46.3235H55.5882V50.4412H51.4706V46.3235H47.3529V42.2059H51.4706V38.0882H55.5882V42.2059H59.7059V46.3235Z" fill="white"/>
</g>
<defs>
<clipPath id="clip0">
<rect width="70" height="70" fill="white"/>
</clipPath>
</defs>
</svg>
