<svg width="46" height="46" viewBox="0 0 46 46" fill="none" xmlns="http://www.w3.org/2000/svg">
<g clip-path="url(#clip0)">
<path d="M6.62654 38.4384C15.374 47.2725 29.6034 47.3439 38.4388 38.5952C47.2729 29.8477 47.3443 15.6183 38.5956 6.78294C29.8481 -2.05117 15.6188 -2.12262 6.78333 6.62616C-2.05087 15.3734 -2.12241 29.603 6.62654 38.4384ZM22.7037 3.81127C33.0696 3.86236 41.4615 12.3373 41.4104 22.7032C41.3593 33.0691 32.8843 41.461 22.5184 41.4099C12.1524 41.3588 3.76057 32.8839 3.81166 22.5179C3.86274 12.1519 12.3377 3.76018 22.7037 3.81127Z" fill="black"/>
<path d="M10.1716 23.9794L20.4534 32.4768C21.6532 33.4683 23.4705 32.6174 23.4782 31.0616L23.5006 26.5141L30.777 32.5276C31.9767 33.5193 33.7941 32.6682 33.8017 31.1125L33.885 14.2195C33.8927 12.6542 32.073 11.8037 30.8743 12.7746L23.539 18.7161L23.5614 14.1686C23.5691 12.6137 21.7606 11.7436 20.5508 12.7237L10.1857 21.1194C9.28197 21.8513 9.269 23.2335 10.1716 23.9794ZM30.1704 18.1003L30.1256 27.1953L24.59 22.6204L30.1704 18.1003ZM19.8469 18.0494L19.802 27.1444L14.2665 22.5695L19.8469 18.0494Z" fill="black"/>
</g>
<defs>
<clipPath id="clip0">
<rect width="45" height="45" fill="white" transform="translate(44.9995 45.2213) rotate(-179.718)"/>
</clipPath>
</defs>
</svg>
