<svg width="52" height="52" viewBox="0 0 65 65" fill="none" xmlns="http://www.w3.org/2000/svg">
    <path d="M62.6785 16.25H51.0714V2.32147C51.0714 1.03934 50.0321 0 48.75 0H2.32147C1.03934 0 0 1.03934 0 2.32147V55.7142C0 60.8427 4.15735 65 9.28575 65H55.7142C60.8427 65 65 60.8427 65 55.7142V18.5714C65 17.2894 63.9607 16.25 62.6785 16.25ZM18.5714 11.6071H32.4999C33.7821 11.6071 34.8214 12.6464 34.8214 13.9286C34.8214 15.2107 33.7821 16.25 32.4999 16.25H18.5714C17.2892 16.25 16.2499 15.2107 16.2499 13.9286C16.2499 12.6464 17.2894 11.6071 18.5714 11.6071ZM39.4642 55.7142H11.6071C10.325 55.7142 9.28562 54.6749 9.28562 53.3928C9.28562 52.1106 10.325 51.0713 11.6071 51.0713H39.4642C40.7463 51.0713 41.7857 52.1106 41.7857 53.3928C41.7857 54.6749 40.7463 55.7142 39.4642 55.7142ZM39.4642 46.4285H11.6071C10.325 46.4285 9.28562 45.3892 9.28562 44.107C9.28562 42.8249 10.325 41.7855 11.6071 41.7855H39.4642C40.7463 41.7855 41.7857 42.8249 41.7857 44.107C41.7857 45.3892 40.7463 46.4285 39.4642 46.4285ZM39.4642 37.1429H11.6071C10.325 37.1429 9.28562 36.1035 9.28562 34.8214C9.28562 33.5393 10.325 32.4999 11.6071 32.4999H39.4642C40.7463 32.4999 41.7857 33.5393 41.7857 34.8214C41.7857 36.1035 40.7463 37.1429 39.4642 37.1429ZM39.4642 27.8571H11.6071C10.325 27.8571 9.28562 26.8178 9.28562 25.5357C9.28562 24.2535 10.325 23.2142 11.6071 23.2142H39.4642C40.7463 23.2142 41.7857 24.2535 41.7857 25.5357C41.7857 26.8178 40.7463 27.8571 39.4642 27.8571ZM60.3571 55.7142C60.3571 58.2784 58.2784 60.3571 55.7142 60.3571C53.1501 60.3571 51.0714 58.2784 51.0714 55.7142V20.8928H60.3572V55.7142H60.3571Z" fill="white"/>
</svg>
