<svg id="Capa_1" enable-background="new 0 0 510 510" height="512" viewBox="0 0 510 510" width="512" xmlns="http://www.w3.org/2000/svg"><g><path d="m256.266 292.5h-21.266v60h21.266c7.573 0 13.734-6.161 13.734-13.734v-21.266-11.266c0-7.573-6.161-13.734-13.734-13.734z"/><path d="m420 208.562v-141.062h-60v141.062l30-18.75z"/><path d="m90 338.766c0 7.573 6.161 13.734 13.734 13.734h21.266v-60h-21.266c-7.573 0-13.734 6.161-13.734 13.734v11.266z"/><path d="m450 67.5v180h-24.302l-35.698-22.312-35.698 22.312h-24.302v-180h-330v375h510v-375zm-150 271.266c0 24.115-19.619 43.734-43.734 43.734h-51.266v-120h51.266c4.797 0 9.411.788 13.734 2.221v-17.221c0-49.626-40.374-90-90-90s-90 40.374-90 90v17.221c4.322-1.434 8.937-2.221 13.734-2.221h51.266v120h-51.266c-24.115 0-43.734-19.619-43.734-43.734v-91.266c0-66.168 53.832-120 120-120s120 53.832 120 120zm135-1.266h-30v30h-30v-30h-30v-30h30v-30h30v30h30z"/></g></svg>